<svg width="71" height="72" viewBox="0 0 71 72" fill="none" xmlns="http://www.w3.org/2000/svg">
<path d="M64.4004 1.44006H55.5595C52.8315 1.44006 50.62 3.65147 50.62 6.37955V15.2204C50.62 17.9485 52.8315 20.1601 55.5595 20.1601H64.4004C67.1284 20.1601 69.34 17.9485 69.34 15.2204V6.37955C69.34 3.65147 67.1284 1.44006 64.4004 1.44006Z" fill="#CF2BBE"/>
<path d="M29.7785 20.687H37.542C40.7545 20.8695 43.8105 22.1352 46.2112 24.2776L46.5024 24.6012C48.6559 26.9949 49.9233 30.0549 50.0929 33.2704V41.0015C50.0929 42.3483 50.628 43.6401 51.5804 44.5925C52.5328 45.545 53.8247 46.0801 55.1716 46.0801H64.2614C65.6082 46.0801 66.9 45.545 67.8524 44.5925C68.8048 43.6401 69.3399 42.3483 69.3399 41.0015V31.9118C69.3399 30.5648 68.8048 29.2731 67.8524 28.3207C66.9 27.3683 65.6082 26.8332 64.2614 26.8332H56.5301C53.3148 26.6634 50.2548 25.396 47.8609 23.2425L47.5375 22.9514C45.3907 20.5533 44.1244 17.4959 43.9468 14.2821V6.51865C43.9468 5.17182 43.4119 3.88 42.4595 2.92758C41.5069 1.97517 40.2152 1.44006 38.8683 1.44006H29.7785C28.4316 1.44006 27.1399 1.97517 26.1875 2.92758C25.2351 3.88 24.7 5.17182 24.7 6.51865V15.6085C24.7 16.9553 25.2351 18.247 26.1875 19.1994C27.1399 20.1519 28.4316 20.687 29.7785 20.687Z" fill="#CF2BBE"/>
<path d="M65.7171 52.5123H58.0266C54.8253 52.3046 51.7921 50.9764 49.4389 48.7521L48.5737 47.8693C46.4405 45.4496 45.185 42.3564 45.0169 39.1062V31.2588C45.0084 29.9 44.4758 28.5993 43.5342 27.6384C42.5924 26.6774 41.3177 26.1338 39.986 26.1253H32.2955C29.1206 25.989 26.0884 24.7421 23.708 22.594L22.8428 21.7112C20.7094 19.2915 19.4541 16.1984 19.2859 12.9482V5.1336C19.2859 3.77208 18.7558 2.46629 17.8124 1.50351C16.869 0.540866 15.5894 0 14.2551 0H5.25075C3.91659 0 2.63687 0.540866 1.69352 1.50351C0.750035 2.46629 0.219971 3.77208 0.219971 5.1336V14.3215C0.219971 15.683 0.750035 16.9888 1.69352 17.9515C2.63687 18.9143 3.91659 19.4551 5.25075 19.4551H12.9092C16.1431 19.606 19.2247 20.9007 21.6251 23.1172L22.4903 24C24.6169 26.424 25.8713 29.5145 26.0471 32.7629V40.6104C26.0554 41.9692 26.5882 43.27 27.5299 44.2308C28.4715 45.1917 29.7463 45.7353 31.0779 45.7439H38.7683C41.9183 45.9451 44.9098 47.2237 47.26 49.3733L48.1252 50.2561C50.2518 52.6801 51.5061 55.7708 51.682 59.0191V66.8665C51.6903 68.2255 52.2231 69.5261 53.1647 70.487C54.1064 71.4479 55.3812 71.9914 56.7127 72H65.749C67.0807 71.9914 68.3556 71.4479 69.2972 70.487C70.2388 69.5261 70.7716 68.2255 70.78 66.8665V57.6458C70.7715 56.2814 70.2344 54.9756 69.2858 54.0138C68.3373 53.052 67.0543 52.5122 65.7171 52.5123Z" fill="#CF2BBE"/>
<path d="M15.0605 51.84H5.53947C2.60159 51.84 0.219971 54.0515 0.219971 56.7796V65.6205C0.219971 68.3486 2.60159 70.56 5.53947 70.56H15.0605C17.9984 70.56 20.38 68.3486 20.38 65.6205V56.7796C20.38 54.0515 17.9984 51.84 15.0605 51.84Z" fill="#CF2BBE"/>
<path d="M39.7814 51.313H32.0502C28.8348 51.1432 25.7748 49.876 23.3809 47.7225L23.0575 47.4313C20.8971 45.0163 19.6299 41.9337 19.4669 38.6974V30.934C19.4509 29.6259 18.9307 28.3744 18.0148 27.4402C17.0988 26.5063 15.8576 25.9617 14.55 25.92H5.29856C3.95158 25.92 2.6599 26.4551 1.70749 27.4076C0.75507 28.36 0.219971 29.6517 0.219971 30.9986V40.0883C0.219971 41.4353 0.75507 42.727 1.70749 43.6796C2.6599 44.632 3.95158 45.1669 5.29856 45.1669H13.062C16.2745 45.3495 19.3305 46.6151 21.7313 48.7576L22.0224 49.081C24.1759 51.4749 25.4433 54.5349 25.6129 57.7502V65.4813C25.6129 66.151 25.7454 66.814 26.0026 67.4322C26.2599 68.0506 26.6369 68.6119 27.112 69.0839C27.5869 69.5559 28.1506 69.9293 28.7706 70.1826C29.3905 70.4359 30.0543 70.5642 30.7239 70.5599H39.7814C41.1282 70.5599 42.42 70.0249 43.3724 69.0725C44.3249 68.1201 44.86 66.8283 44.86 65.4813V56.3916C44.86 55.0448 44.3249 53.7529 43.3724 52.8005C42.42 51.8481 41.1282 51.313 39.7814 51.313Z" fill="#CF2BBE"/>
</svg>
