<svg width="136" height="138" viewBox="0 0 136 138" fill="none" xmlns="http://www.w3.org/2000/svg">
<path d="M123.012 2.75999H106.067C100.839 2.75999 96.6 6.99852 96.6 12.2273V29.1724C96.6 34.4012 100.839 38.64 106.067 38.64H123.012C128.241 38.64 132.48 34.4012 132.48 29.1724V12.2273C132.48 6.99852 128.241 2.75999 123.012 2.75999Z" fill="white"/>
<path d="M56.654 39.6499H71.534C77.6913 39.9998 83.5485 42.4256 88.15 46.5319L88.7081 47.1521C92.8357 51.7401 95.2647 57.6051 95.5899 63.7681V78.586C95.5899 81.1675 96.6155 83.6435 98.4409 85.4689C100.266 87.2944 102.742 88.32 105.324 88.32H122.746C125.327 88.32 127.803 87.2944 129.629 85.4689C131.454 83.6435 132.48 81.1675 132.48 78.586V61.1641C132.48 58.5824 131.454 56.1067 129.629 54.2812C127.803 52.4557 125.327 51.4301 122.746 51.4301H107.928C101.765 51.1047 95.9001 48.6756 91.3119 44.548L90.692 43.99C86.5774 39.3937 84.1502 33.5337 83.8099 27.3739V12.494C83.8099 9.91253 82.7846 7.43654 80.9591 5.61108C79.1334 3.78561 76.6577 2.75999 74.076 2.75999H56.654C54.0723 2.75999 51.5966 3.78561 49.7711 5.61108C47.9457 7.43654 46.92 9.91253 46.92 12.494V29.9162C46.92 32.4976 47.9457 34.9733 49.7711 36.7988C51.5966 38.6243 54.0723 39.6499 56.654 39.6499Z" fill="white"/>
<path d="M125.536 100.649H110.796C104.66 100.25 98.8466 97.7048 94.3362 93.4415L92.678 91.7496C88.5894 87.1117 86.1829 81.1832 85.8608 74.9536V59.9127C85.8445 57.3084 84.8236 54.8153 83.0189 52.9735C81.2138 51.1318 78.7707 50.0899 76.2182 50.0736H61.4782C55.3929 49.8122 49.5812 47.4223 45.0186 43.3052L43.3604 41.6131C39.2715 36.9754 36.8653 31.047 36.5429 24.8174V9.8394C36.5429 7.22982 35.527 4.72706 33.7189 2.88172C31.9106 1.03666 29.458 0 26.9006 0H9.64233C7.08519 0 4.63238 1.03666 2.82431 2.88172C1.01596 4.72706 0 7.22982 0 9.8394V27.4496C0 30.0592 1.01596 32.5619 2.82431 34.407C4.63238 36.2523 7.08519 37.289 9.64233 37.289H24.3211C30.5192 37.5782 36.4256 40.0597 41.0266 44.3079L42.6848 46.0001C46.7607 50.646 49.165 56.5695 49.502 62.7955V77.8367C49.518 80.441 50.5392 82.9341 52.3439 84.7756C54.1487 86.6174 56.5921 87.6593 59.1443 87.6758H73.8844C79.9219 88.0614 85.6555 90.512 90.1601 94.6321L91.8183 96.3243C95.8942 100.97 98.2985 106.894 98.6355 113.12V128.161C98.6515 130.765 99.6727 133.258 101.477 135.1C103.282 136.942 105.726 137.983 108.278 138H125.597C128.15 137.983 130.593 136.942 132.398 135.1C134.203 133.258 135.224 130.765 135.24 128.161V110.488C135.224 107.873 134.194 105.37 132.376 103.526C130.558 101.683 128.099 100.648 125.536 100.649Z" fill="white"/>
<path d="M28.4443 99.36H10.1957C4.56476 99.36 0 103.599 0 108.828V125.773C0 131.001 4.56476 135.24 10.1957 135.24H28.4443C34.0752 135.24 38.64 131.001 38.64 125.773V108.828C38.64 103.599 34.0752 99.36 28.4443 99.36Z" fill="white"/>
<path d="M75.826 98.3498H61.0079C54.8451 98.0244 48.9801 95.5956 44.3918 91.4681L43.7719 90.91C39.6311 86.2812 37.2023 80.3729 36.8899 74.17V59.29C36.8592 56.7829 35.8623 54.3841 34.1067 52.5937C32.3511 50.8036 29.9722 49.7598 27.4659 49.68H9.73396C7.15226 49.68 4.67654 50.7056 2.85107 52.5311C1.02561 54.3566 0 56.8323 0 59.414V76.8359C0 79.4176 1.02561 81.8933 2.85107 83.7191C4.67654 85.5445 7.15226 86.5699 9.73396 86.5699H24.6139C30.7712 86.9199 36.6285 89.3456 41.23 93.4519L41.788 94.0718C45.9156 98.6601 48.3447 104.525 48.6698 110.688V125.506C48.6698 126.789 48.9238 128.06 49.4167 129.245C49.9099 130.43 50.6325 131.506 51.543 132.411C52.4532 133.315 53.5338 134.031 54.722 134.517C55.9101 135.002 57.1825 135.248 58.4659 135.24H75.826C78.4075 135.24 80.8834 134.214 82.7089 132.389C84.5344 130.563 85.56 128.087 85.56 125.506V108.084C85.56 105.502 84.5344 103.026 82.7089 101.201C80.8834 99.3755 78.4075 98.3498 75.826 98.3498Z" fill="white"/>
</svg>
